<?xml version="1.0" standalone="no"?>
<!DOCTYPE svg PUBLIC "-//W3C//DTD SVG 20010904//EN"
 "http://www.w3.org/TR/2001/REC-SVG-20010904/DTD/svg10.dtd">
<svg version="1.0" xmlns="http://www.w3.org/2000/svg"
 width="874.000000pt" height="819.000000pt" viewBox="0 0 874.000000 819.000000"
 preserveAspectRatio="xMidYMid meet">

<g transform="translate(0.000000,819.000000) scale(0.100000,-0.100000)"
fill="#000000" stroke="none">
<path d="M0 4095 l0 -4095 4370 0 4370 0 0 4095 0 4095 -4370 0 -4370 0 0
-4095z m7608 3357 c17 -17 19 -46 25 -307 12 -497 10 -558 -14 -589 l-20 -26
-2205 -2 -2204 -3 -1 -2960 c0 -1628 -3 -3018 -8 -3089 -6 -118 -9 -130 -30
-148 -23 -18 -45 -18 -477 -16 -355 2 -456 6 -466 16 -11 11 -14 587 -18 3105
l-5 3092 -695 5 c-382 3 -696 6 -697 8 -1 1 -9 15 -18 32 -13 25 -15 92 -15
445 0 402 1 416 20 435 20 20 33 20 3415 20 3280 0 3396 -1 3413 -18z m-3316
-1286 c10 -7 22 -25 28 -40 7 -19 10 -926 10 -2867 0 -3106 4 -2900 -57 -2915
-15 -4 -220 -8 -455 -8 -477 -1 -451 -5 -468 70 -6 22 -10 1232 -10 2840 0
2757 0 2801 19 2818 11 10 37 22 58 27 74 17 441 60 698 82 95 8 161 6 177 -7z
m338 -26 c382 -34 859 -159 1190 -312 36 -17 90 -42 120 -56 96 -44 377 -209
450 -264 14 -10 69 -52 124 -93 318 -240 636 -607 809 -935 22 -41 46 -82 53
-91 8 -8 14 -21 14 -28 0 -6 11 -33 24 -59 63 -127 133 -347 183 -577 28 -129
28 -133 28 -485 0 -349 0 -357 -27 -480 -70 -321 -163 -565 -320 -840 -39 -69
-206 -311 -227 -330 -4 -3 -31 -34 -60 -70 -264 -316 -678 -633 -1071 -819
-407 -192 -874 -320 -1319 -361 -102 -9 -131 -3 -151 34 -8 16 -10 117 -8 368
3 394 1 382 87 393 233 31 530 100 646 149 17 7 77 33 135 56 545 223 989 631
1225 1128 19 39 35 76 35 81 0 5 9 29 20 54 30 68 76 229 96 337 26 137 26
508 0 635 -37 179 -101 376 -163 499 -192 381 -474 680 -883 934 -19 12 -100
55 -180 95 -234 117 -449 188 -713 238 -88 16 -174 29 -192 29 -54 0 -85 17
-100 55 -12 28 -15 97 -15 355 l0 321 25 24 c28 29 17 28 165 15z"/>
</g>
</svg>
