<?xml version="1.0" encoding="iso-8859-1"?>
<!-- Generator: Adobe Illustrator 18.1.1, SVG Export Plug-In . SVG Version: 6.00 Build 0)  -->
<!DOCTYPE svg PUBLIC "-//W3C//DTD SVG 1.1//EN" "http://www.w3.org/Graphics/SVG/1.1/DTD/svg11.dtd">
<svg version="1.1" id="Layer_1" xmlns="http://www.w3.org/2000/svg" xmlns:xlink="http://www.w3.org/1999/xlink" x="0px" y="0px"
	 viewBox="0 0 113.666 36.5" style="enable-background:new 0 0 113.666 36.5;" xml:space="preserve">
<g>
	<path d="M108.632,21.851h-3.78V0.574h3.78V21.851z"/>
	<path d="M95.881,6.855c-1.783,0-3.4,0.675-4.62,1.872V0.574H87.48v21.277h3.781v-1.365c1.22,1.18,2.837,1.827,4.62,1.827
		c3.793,0,6.867-2.898,6.867-7.729C102.748,9.883,99.675,6.855,95.881,6.855z M95.163,18.817c-2.284,0-3.734-1.574-3.734-4.195
		c0-2.552,1.451-4.196,3.734-4.196c2.283,0,3.732,1.643,3.732,4.196C98.895,17.243,97.445,18.817,95.163,18.817z"/>
	<path d="M69.931,14.584c0,4.831,3.073,7.729,6.866,7.729c1.782,0,3.403-0.647,4.623-1.827v1.365h3.78V7.116h-3.78v1.611
		c-1.22-1.197-2.841-1.872-4.623-1.872C73.004,6.855,69.931,9.883,69.931,14.584z M73.784,14.622c0-2.552,1.45-4.196,3.732-4.196
		c2.284,0,3.737,1.643,3.737,4.196c0,2.621-1.453,4.195-3.737,4.195C75.234,18.817,73.784,17.243,73.784,14.622z"/>
	<path d="M67.388,18.733c-0.883,0-1.598-0.848-1.598-1.73v-6.492h2.385V7.259H65.79V3.341h-3.781v3.918h-1.987v3.252h1.987v6.22
		c0,3.438,1.866,5.379,5.379,5.379h1.818v-3.377H67.388z"/>
	<path d="M9.949,22.723v-0.008c-0.295-0.019-0.568-0.043-0.831-0.07c-0.31-0.032-0.595-0.068-0.862-0.109
		c-0.016-0.002-0.033-0.005-0.048-0.007c-2.604-0.414-3.241-1.316-3.27-2.588c1.133,0.685,2.54,1.087,4.188,1.087
		c4.473,0,7.356-3.09,7.356-6.902c0-1.163-0.271-2.257-0.771-3.219l0.573-3.608L12.915,6.61l-0.221,1.391
		c-1.023-0.496-2.223-0.78-3.569-0.78C4.528,7.22,1.77,10.31,1.77,14.122c0,1.67,0.53,3.203,1.512,4.397
		c-0.867,0.762-1.335,1.721-1.335,2.766c0,1.104,0.521,2.114,1.482,2.896c-1.79,1.171-2.779,2.932-2.779,4.932
		c0,3.586,3.179,6.352,8.475,6.352c5.156,0,8.477-2.766,8.477-6.352C17.603,25.72,14.631,23.008,9.949,22.723z M9.126,10.669
		c2.331,0,3.833,1.342,3.833,3.455c0,2.112-1.502,3.453-3.833,3.453c-2.396,0-3.834-1.341-3.834-3.454S6.73,10.669,9.126,10.669z
		 M9.126,32.239c-2.898,0-4.638-1.13-4.638-3.129c0-1.997,1.74-3.19,4.638-3.19c2.822,0,4.641,1.193,4.641,3.19
		C13.767,31.109,11.948,32.239,9.126,32.239z"/>
	<path d="M26.456,6.848c-0.049-0.005-0.109-0.007-0.18-0.007c-1.131,0-1.95,0.196-2.784,0.639c-0.548,0.292-1.08,0.769-1.5,1.067
		V7.234h-3.47v14.688h3.668V14.94c0-1.16,0.138-2.14,0.431-2.697c0.521-0.991,1.497-1.745,3.071-1.798
		c0.117-0.004,0.266,0.005,0.452,0.013c0.186,0.009,0.398,0.026,0.638,0.053V6.867C26.612,6.858,26.504,6.852,26.456,6.848z"/>
	<path d="M42.607,14.611c0-4.7-3.378-7.729-7.545-7.729c-4.168,0-7.546,3.029-7.546,7.729c0,4.831,3.378,7.729,7.546,7.729
		c3.401,0,5.718-1.502,7.073-3.734l-3.036-1.542c-0.806,1.056-2.213,1.959-4.037,1.959c-1.922,0-3.277-1.081-3.728-2.951h11.155
		C42.562,15.606,42.607,15.122,42.607,14.611z M31.379,13.018c0.489-1.752,1.816-2.819,3.682-2.819c1.866,0,3.193,1.067,3.681,2.819
		H31.379z"/>
	<path d="M59.094,14.611c0-4.7-3.378-7.729-7.545-7.729c-4.168,0-7.546,3.029-7.546,7.729c0,4.831,3.378,7.729,7.546,7.729
		c3.402,0,5.717-1.502,7.073-3.734l-3.036-1.542c-0.806,1.056-2.213,1.959-4.038,1.959c-1.922,0-3.276-1.081-3.727-2.951h11.156
		C59.049,15.606,59.094,15.122,59.094,14.611z M47.866,13.018c0.488-1.752,1.817-2.819,3.682-2.819c1.867,0,3.193,1.067,3.682,2.819
		H47.866z"/>
	<g>
		<path d="M110.188,1.902c0-0.751,0.616-1.367,1.375-1.367c0.755,0,1.367,0.616,1.367,1.367c0,0.758-0.612,1.375-1.367,1.375
			C110.803,3.277,110.188,2.661,110.188,1.902z M112.71,1.902c0-0.667-0.481-1.148-1.148-1.148c-0.671,0-1.156,0.481-1.156,1.148
			c0,0.675,0.484,1.156,1.156,1.156C112.229,3.059,112.71,2.577,112.71,1.902z M111.214,2.64h-0.186V1.182h0.627
			c0.38,0,0.509,0.143,0.509,0.403c0,0.282-0.195,0.387-0.451,0.407l0.434,0.647h-0.21l-0.411-0.647h-0.312V2.64z M111.473,1.814
			c0.203,0,0.488,0.034,0.488-0.24c0-0.204-0.169-0.231-0.346-0.231h-0.4v0.471H111.473z"/>
	</g>
</g>
</svg>
