<svg xmlns="http://www.w3.org/2000/svg" width="140" height="25" viewBox="0 0 140 25">
  <g id="グループ_285" data-name="グループ 285" transform="translate(-32.634 -84.017)">
    <g id="グループ_284" data-name="グループ 284">
      <g id="グループ_282" data-name="グループ 282">
        <path id="パス_214" data-name="パス 214" d="M37.053,91.148h6.392V84.58h4.42V101.6h-4.42V94.619H37.053V101.6H32.634V84.58h4.419Z" fill="#fff"/>
        <path id="パス_215" data-name="パス 215" d="M56.514,84.58V101.6h-4.42V84.58Z" fill="#fff"/>
        <path id="パス_216" data-name="パス 216" d="M69.55,94.619l5.345,6.977H69.384l-4.165-6.547h-.055V101.6h-4.42V84.58h6.612a7.78,7.78,0,0,1,3.076.561A4.507,4.507,0,0,1,72.5,86.883a5.222,5.222,0,0,1,.771,2.931,5.7,5.7,0,0,1-.429,2.216,4.315,4.315,0,0,1-3.3,2.589Zm-4.386-6.656v4.243h.429a6.62,6.62,0,0,0,1.543-.154,2.4,2.4,0,0,0,1.1-.639,2.267,2.267,0,0,0,0-2.657,2.41,2.41,0,0,0-1.1-.639,6.4,6.4,0,0,0-1.543-.154Z" fill="#fff"/>
        <path id="パス_217" data-name="パス 217" d="M85.98,84.017a10.081,10.081,0,0,1,3.549.629,9.645,9.645,0,0,1,3.019,1.829,8.99,8.99,0,0,1,2.084,2.8,7.851,7.851,0,0,1,.76,3.493,10.171,10.171,0,0,1-.672,3.747,8.892,8.892,0,0,1-1.984,3.009,8.781,8.781,0,0,1-1.411,1.157,8.64,8.64,0,0,1-1.575.805,10.847,10.847,0,0,1-7.517,0,8.5,8.5,0,0,1-3-1.962,8.344,8.344,0,0,1-1.107-1.339,9.978,9.978,0,0,1-.877-1.67,10.12,10.12,0,0,1-.682-3.747,8.344,8.344,0,0,1,.192-1.8,7.977,7.977,0,0,1,.578-1.7,9.006,9.006,0,0,1,2.072-2.8,9.463,9.463,0,0,1,3.054-1.829A9.745,9.745,0,0,1,85.98,84.017Zm0,4.288a4.7,4.7,0,0,0-2.391.628,4.9,4.9,0,0,0-1.764,1.653,4.22,4.22,0,0,0-.65,2.2,5.373,5.373,0,0,0,.65,2.6,4.646,4.646,0,0,0,1.742,1.829,4.772,4.772,0,0,0,2.413.651,4.7,4.7,0,0,0,2.414-.651,4.553,4.553,0,0,0,1.741-1.829,5.263,5.263,0,0,0,.65-2.6,4.115,4.115,0,0,0-.65-2.2,4.916,4.916,0,0,0-1.763-1.653A4.67,4.67,0,0,0,85.98,88.305Z" fill="#fff"/>
      </g>
      <g id="グループ_283" data-name="グループ 283">
        <path id="パス_218" data-name="パス 218" d="M111.441,84.987v5.3a4.617,4.617,0,0,0-1.7-1.4,5.147,5.147,0,0,0-2.182-.473,4.362,4.362,0,0,0-2.347.628,4.123,4.123,0,0,0-1.631,1.7,4.974,4.974,0,0,0-.562,2.392,4.817,4.817,0,0,0,.584,2.391,4.022,4.022,0,0,0,1.631,1.653,4.938,4.938,0,0,0,2.391.584,4.8,4.8,0,0,0,2.094-.474,5.446,5.446,0,0,0,1.72-1.333v5.3q-1.29.4-2.238.617a7.919,7.919,0,0,1-1.664.176,9.649,9.649,0,0,1-3.416-.65,8.585,8.585,0,0,1-1.042-.485,10.742,10.742,0,0,1-.975-.606,10.534,10.534,0,0,1-.959-.76,8.269,8.269,0,0,1-2.733-6.437,8.864,8.864,0,0,1,.661-3.361,8.611,8.611,0,0,1,1.852-2.865,9.67,9.67,0,0,1,1.895-1.488,9,9,0,0,1,4.574-1.268A10.521,10.521,0,0,1,111.441,84.987Z" fill="#fff"/>
        <path id="パス_219" data-name="パス 219" d="M123.606,84.017a10.1,10.1,0,0,1,3.549.628,9.664,9.664,0,0,1,3.02,1.83,9.011,9.011,0,0,1,2.083,2.8,7.858,7.858,0,0,1,.76,3.494,10.15,10.15,0,0,1-.672,3.747,9.062,9.062,0,0,1-3.395,4.166,8.551,8.551,0,0,1-1.576.8,10.829,10.829,0,0,1-7.516,0,8.5,8.5,0,0,1-3-1.961,8.388,8.388,0,0,1-1.107-1.339,9.9,9.9,0,0,1-.876-1.67,10.1,10.1,0,0,1-.684-3.747,8.425,8.425,0,0,1,.193-1.8,7.962,7.962,0,0,1,.579-1.7,8.944,8.944,0,0,1,2.072-2.8,9.479,9.479,0,0,1,3.053-1.83A9.766,9.766,0,0,1,123.606,84.017Zm0,4.287a4.7,4.7,0,0,0-2.391.629,4.908,4.908,0,0,0-1.764,1.653,4.229,4.229,0,0,0-.65,2.2,5.384,5.384,0,0,0,.65,2.6,4.653,4.653,0,0,0,1.742,1.829,4.771,4.771,0,0,0,2.413.65,4.7,4.7,0,0,0,2.414-.65,4.553,4.553,0,0,0,1.741-1.829,5.252,5.252,0,0,0,.65-2.6,4.106,4.106,0,0,0-.65-2.2A4.907,4.907,0,0,0,126,88.933,4.671,4.671,0,0,0,123.606,88.3Z" fill="#fff"/>
        <path id="パス_220" data-name="パス 220" d="M136.411,101.6V84.579h6.271a8.906,8.906,0,0,1,3.35.651,8.273,8.273,0,0,1,2.766,1.807,8.593,8.593,0,0,1,2.364,4.315,8.6,8.6,0,0,1,.171,1.735,8.136,8.136,0,0,1-1.179,4.288,8.441,8.441,0,0,1-3.152,3.1,9.234,9.234,0,0,1-2.094.844,8.784,8.784,0,0,1-2.226.281Zm4.419-13.27v9.522h1a5.892,5.892,0,0,0,2.48-.518,3.948,3.948,0,0,0,1.763-1.576,5.152,5.152,0,0,0,.65-2.667,4.6,4.6,0,0,0-1.333-3.5,4.511,4.511,0,0,0-.981-.689,4.847,4.847,0,0,0-1.168-.424,6.113,6.113,0,0,0-1.367-.144Z" fill="#fff"/>
        <path id="パス_221" data-name="パス 221" d="M164.4,88.326h-5.268V91.17h4.992v3.747h-4.992v2.931H164.4V101.6h-9.688V84.579H164.4Z" fill="#fff"/>
        <path id="パス_222" data-name="パス 222" d="M169.989,96.768a2.567,2.567,0,0,1,1.333.353,2.691,2.691,0,0,1,1.312,2.281,2.477,2.477,0,0,1-.364,1.334,2.275,2.275,0,0,1-.948.948,2.473,2.473,0,0,1-1.333.363,2.434,2.434,0,0,1-1.312-.363,2.319,2.319,0,0,1-.97-.948,2.626,2.626,0,0,1,2.282-3.968Z" fill="#fff"/>
      </g>
    </g>
    <rect id="長方形_7" data-name="長方形 7" width="140" height="2" transform="translate(32.634 107.017)" fill="#0cf"/>
  </g>
</svg>
