<?xml version="1.0" standalone="no"?>
<!DOCTYPE svg PUBLIC "-//W3C//DTD SVG 20010904//EN"
 "http://www.w3.org/TR/2001/REC-SVG-20010904/DTD/svg10.dtd">
<svg version="1.0" xmlns="http://www.w3.org/2000/svg"
 width="1522.000000pt" height="1076.000000pt" viewBox="0 0 1522.000000 1076.000000"
 preserveAspectRatio="xMidYMid meet">

<g transform="translate(0.000000,1076.000000) scale(0.100000,-0.100000)"
fill="#000000" stroke="none">
<path d="M0 5380 l0 -5380 7610 0 7610 0 0 5380 0 5380 -7610 0 -7610 0 0
-5380z m10888 3552 c17 -17 19 -46 25 -313 11 -492 10 -553 -12 -580 l-19 -24
-2206 -5 -2206 -5 -1 -2960 c0 -1628 -3 -3018 -8 -3089 -6 -118 -9 -130 -30
-147 -22 -18 -48 -19 -461 -19 -244 0 -449 4 -463 9 -13 5 -27 17 -31 26 -3 9
-6 1404 -6 3101 l0 3084 -684 0 c-377 0 -692 3 -701 6 -43 17 -45 42 -45 477
0 402 1 414 20 435 l21 22 3394 0 c3280 0 3396 -1 3413 -18z m-3318 -1282 c10
-5 23 -24 29 -41 8 -23 11 -824 11 -2871 0 -3105 4 -2899 -57 -2914 -15 -4
-220 -8 -455 -8 -494 -1 -457 -9 -469 101 -5 38 -8 1314 -8 2836 l-1 2768 23
23 c26 26 121 44 417 77 339 37 479 46 510 29z m340 -30 c333 -30 681 -113
1040 -250 84 -32 102 -40 270 -118 90 -42 372 -206 430 -251 19 -14 49 -35 65
-46 24 -15 121 -89 182 -140 59 -49 262 -246 318 -309 39 -43 75 -84 81 -90
23 -24 190 -257 228 -318 22 -35 58 -97 79 -138 22 -41 46 -82 53 -91 8 -8 14
-20 14 -26 0 -6 15 -43 34 -84 77 -169 157 -445 191 -660 14 -88 16 -161 13
-420 -4 -293 -6 -322 -31 -439 -78 -368 -203 -670 -399 -965 -333 -502 -847
-917 -1443 -1167 -156 -66 -384 -141 -570 -188 -250 -64 -652 -120 -700 -98
-45 20 -46 34 -43 394 3 393 2 388 85 399 236 32 535 101 648 150 17 7 57 23
90 36 142 53 348 161 482 250 154 104 384 305 485 426 133 158 283 401 337
548 56 150 64 174 82 243 48 180 53 229 53 467 0 231 -5 275 -45 440 -18 75
-30 111 -93 279 -48 130 -199 379 -309 511 -125 150 -336 339 -497 445 -133
88 -146 95 -305 174 -164 82 -260 120 -435 172 -119 36 -406 94 -465 94 -54 0
-85 17 -100 55 -12 28 -15 97 -15 355 l0 321 25 24 c28 29 17 28 165 15z"/>
</g>
</svg>
