<svg xmlns="http://www.w3.org/2000/svg" viewBox="0 0 232.18 20.71"><defs><style>.cls-1{fill:#231815;}.cls-2{fill:#010000;}</style></defs><g id="レイヤー_2" data-name="レイヤー 2"><g id="レイヤー_1-2" data-name="レイヤー 1"><path class="cls-1" d="M127,13.09a5.06,5.06,0,0,1,1-1.77,4.47,4.47,0,0,1,1.58-1.23,5.56,5.56,0,0,1,4.43,0,4.47,4.47,0,0,1,1.58,1.23,5.06,5.06,0,0,1,1,1.77,7,7,0,0,1,0,4.17,5.06,5.06,0,0,1-1,1.77A4.47,4.47,0,0,1,134,20.26a5.68,5.68,0,0,1-4.43,0A4.47,4.47,0,0,1,128,19a5.06,5.06,0,0,1-1-1.77,7,7,0,0,1,0-4.17m1.3,3.67a4.28,4.28,0,0,0,.65,1.4,3.44,3.44,0,0,0,1.14,1,3.84,3.84,0,0,0,3.33,0,3.44,3.44,0,0,0,1.14-1,4.28,4.28,0,0,0,.65-1.4,6.07,6.07,0,0,0,.21-1.58,6,6,0,0,0-.21-1.58,4.33,4.33,0,0,0-.65-1.41,3.44,3.44,0,0,0-1.14-1,3.84,3.84,0,0,0-3.33,0,3.44,3.44,0,0,0-1.14,1,4.33,4.33,0,0,0-.65,1.41,6,6,0,0,0-.21,1.58,6.07,6.07,0,0,0,.21,1.58"/><polygon class="cls-1" points="140.03 9.88 145.6 18.47 145.63 18.47 145.63 9.88 146.97 9.88 146.97 20.47 145.43 20.47 139.89 11.97 139.86 11.97 139.86 20.47 138.53 20.47 138.53 9.88 140.03 9.88"/><polygon class="cls-1" points="150.66 9.88 150.66 19.29 156.27 19.29 156.27 20.47 149.25 20.47 149.25 9.88 150.66 9.88"/><rect class="cls-1" x="157.56" y="9.88" width="1.41" height="10.59"/><polygon class="cls-1" points="162.83 9.88 168.41 18.47 168.44 18.47 168.44 9.88 169.77 9.88 169.77 20.47 168.23 20.47 162.7 11.97 162.67 11.97 162.67 20.47 161.33 20.47 161.33 9.88 162.83 9.88"/><polygon class="cls-1" points="179.37 9.88 179.37 11.06 173.47 11.06 173.47 14.43 178.97 14.43 178.97 15.62 173.47 15.62 173.47 19.29 179.42 19.29 179.42 20.47 172.06 20.47 172.06 9.88 179.37 9.88"/><path class="cls-1" d="M190.55,11.32a3,3,0,0,0-1.8-.51,4.31,4.31,0,0,0-.88.09,2.32,2.32,0,0,0-.76.3,1.5,1.5,0,0,0-.53.56,1.64,1.64,0,0,0-.2.86,1.13,1.13,0,0,0,.28.8,2.09,2.09,0,0,0,.78.49,5.87,5.87,0,0,0,1.09.32l1.24.28a12.41,12.41,0,0,1,1.23.35,4,4,0,0,1,1.1.54,2.81,2.81,0,0,1,.68,3.61,3.13,3.13,0,0,1-1,1,4.25,4.25,0,0,1-1.33.55,6.68,6.68,0,0,1-1.46.17,6.16,6.16,0,0,1-1.69-.22,4.19,4.19,0,0,1-1.39-.68,3.18,3.18,0,0,1-.95-1.16,3.74,3.74,0,0,1-.35-1.67H186a2.48,2.48,0,0,0,.25,1.16,2.51,2.51,0,0,0,.69.79,2.86,2.86,0,0,0,1,.46,4.56,4.56,0,0,0,1.16.15,5.2,5.2,0,0,0,1-.09,2.73,2.73,0,0,0,.87-.31,1.72,1.72,0,0,0,.62-.58,1.74,1.74,0,0,0,.24-.95,1.34,1.34,0,0,0-.29-.89,2.16,2.16,0,0,0-.77-.56,6.07,6.07,0,0,0-1.09-.35l-1.24-.27c-.42-.1-.84-.2-1.24-.33a4,4,0,0,1-1.09-.49,2.21,2.21,0,0,1-.77-.78,2.28,2.28,0,0,1-.29-1.21,2.77,2.77,0,0,1,.32-1.39,2.87,2.87,0,0,1,.87-1,3.65,3.65,0,0,1,1.23-.57,5.89,5.89,0,0,1,2.93,0,3.38,3.38,0,0,1,1.23.61,2.94,2.94,0,0,1,.83,1,3.82,3.82,0,0,1,.33,1.51h-1.33a2.25,2.25,0,0,0-.83-1.66"/><polygon class="cls-1" points="193.74 11.07 193.74 9.88 202.21 9.88 202.21 11.07 198.68 11.07 198.68 20.47 197.27 20.47 197.27 11.07 193.74 11.07"/><path class="cls-1" d="M203.11,13.09a5.21,5.21,0,0,1,.95-1.77,4.6,4.6,0,0,1,1.59-1.23,5.54,5.54,0,0,1,4.42,0,4.6,4.6,0,0,1,1.59,1.23,5.41,5.41,0,0,1,1,1.77,7,7,0,0,1,0,4.17,5.41,5.41,0,0,1-1,1.77,4.6,4.6,0,0,1-1.59,1.23,5.65,5.65,0,0,1-4.42,0A4.6,4.6,0,0,1,204.06,19a5.21,5.21,0,0,1-.95-1.77,7,7,0,0,1,0-4.17m1.29,3.67a4.3,4.3,0,0,0,.66,1.4,3.25,3.25,0,0,0,1.14,1,3.82,3.82,0,0,0,3.32,0,3.38,3.38,0,0,0,1.15-1,4.49,4.49,0,0,0,.65-1.4,6.07,6.07,0,0,0,.21-1.58,6,6,0,0,0-.21-1.58,4.54,4.54,0,0,0-.65-1.41,3.38,3.38,0,0,0-1.15-1,3.82,3.82,0,0,0-3.32,0,3.25,3.25,0,0,0-1.14,1,4.35,4.35,0,0,0-.66,1.41,6,6,0,0,0-.2,1.58,6.06,6.06,0,0,0,.2,1.58"/><path class="cls-1" d="M219.64,9.88a3.47,3.47,0,0,1,2.37.74,2.54,2.54,0,0,1,.85,2,3.2,3.2,0,0,1-.44,1.69,2.25,2.25,0,0,1-1.4,1v0a2,2,0,0,1,.75.29,1.68,1.68,0,0,1,.46.5,2.2,2.2,0,0,1,.25.65,5.42,5.42,0,0,1,.13.74c0,.26,0,.52,0,.78a6.82,6.82,0,0,0,.08.79,4.43,4.43,0,0,0,.17.74,1.72,1.72,0,0,0,.33.61h-1.57a.86.86,0,0,1-.2-.44,3.91,3.91,0,0,1-.07-.63q0-.36,0-.75a5.16,5.16,0,0,0-.09-.79c0-.26-.09-.5-.14-.73a1.65,1.65,0,0,0-.29-.61,1.37,1.37,0,0,0-.5-.42,2,2,0,0,0-.83-.15h-3.44v4.52h-1.41V9.88Zm.3,4.81a2.07,2.07,0,0,0,.78-.29,1.64,1.64,0,0,0,.53-.58,2,2,0,0,0,.2-1,1.93,1.93,0,0,0-.44-1.3,1.83,1.83,0,0,0-1.44-.5h-3.5v3.69H219a7,7,0,0,0,.94-.07"/><polygon class="cls-1" points="232.13 9.88 232.13 11.06 226.23 11.06 226.23 14.43 231.74 14.43 231.74 15.62 226.23 15.62 226.23 19.29 232.18 19.29 232.18 20.47 224.82 20.47 224.82 9.88 232.13 9.88"/><polygon class="cls-2" points="23.96 2.1 23.96 0 15.29 0 8.67 0 0 0 0 2.1 8.67 2.1 8.67 20.71 15.29 20.71 15.29 2.1 23.96 2.1"/><polygon class="cls-2" points="88.05 2.1 88.05 0 77.22 0 70.6 0 70.6 2.1 70.6 9.3 70.6 11.41 70.6 18.61 70.6 20.71 77.22 20.71 88.05 20.71 88.05 18.61 77.22 18.61 77.22 11.41 86.37 11.41 86.37 9.3 77.22 9.3 77.22 2.1 88.05 2.1"/><path class="cls-2" d="M36.27,0H29.65L20.79,20.71h6.62l1.74-4.05H37l1.73,4.05h6.63L36.46,0ZM30.05,14.55l3-7,3,7Z"/><polygon class="cls-2" points="47.07 0 47.07 20.71 53.7 20.71 53.7 10.37 53.7 0 47.07 0"/><polygon class="cls-2" points="61.64 0 57.01 6.05 53.7 10.37 57.02 14.69 61.64 20.71 68.26 20.71 60.32 10.37 68.26 0 61.64 0"/><path class="cls-2" d="M91.55,0V20.71h20.38V0Zm14.27,18.77H97.65V1.94h8.17Z"/></g></g></svg>