<svg xmlns="http://www.w3.org/2000/svg" viewBox="0 0 64.3 42.87"><defs><style>.cls-1{fill:#333;}</style></defs><g id="レイヤー_2" data-name="レイヤー 2"><g id="レイヤー_1-2" data-name="レイヤー 1"><path class="cls-1" d="M64.3,39.29a3.6,3.6,0,0,1-3.57,3.58H3.57A3.6,3.6,0,0,1,0,39.29V3.57A3.6,3.6,0,0,1,3.57,0H60.73A3.6,3.6,0,0,1,64.3,3.57ZM13.2,14a1.86,1.86,0,0,0-2.09-1.51H3.63l-.06.37c5.14,1.31,9.35,4.1,11.25,9.37Zm2.09,10.72-.47-2.49a11.22,11.22,0,0,0-6-6.08l3.77,14.23h4.88L24.73,12.5H19.81Zm13,5.69,2.9-17.92H26.6L23.69,30.42ZM41,12.2c-4.58,0-7.79,2.42-7.81,5.91,0,2.57,2.28,4,4,4.86s2.4,1.45,2.4,2.23c0,1.2-1.45,1.73-2.76,1.73A8.71,8.71,0,0,1,32.49,26l-.62-.31-.64,4a13.55,13.55,0,0,0,5.16,1c4.86,0,8-2.4,8.07-6.11,0-2-1.26-3.57-3.91-4.86C38.93,18.89,38,18.31,38,17.47s.83-1.53,2.65-1.53a7.56,7.56,0,0,1,3.46.67l.42.22L45.13,13A11.58,11.58,0,0,0,41,12.2Zm12.45.3A2.29,2.29,0,0,0,51,14L44.12,30.42H49c.78-2.2,1-2.68,1-2.68h5.91s.14.62.56,2.68h4.3L57,12.5ZM51.27,24.06s.39-1,1.84-5c0,0,.39-1,.61-1.7l.34,1.53c.86,4.27,1.06,5.17,1.06,5.17Z"/></g></g></svg>