<svg xmlns="http://www.w3.org/2000/svg" width="65.217" height="60" viewBox="0 0 65.217 60">
  <g id="グループ_309" data-name="グループ 309" transform="translate(-39.524 -15)">
    <g id="グループ_306" data-name="グループ 306" transform="translate(20 -5)">
      <g id="グループ_307" data-name="グループ 307">
        <path id="パス_17" data-name="パス 17" d="M68.642,464.375h6.464v-6.643h4.469v17.209H75.107v-7.055H68.642v7.055H64.173V457.732h4.469Z" transform="translate(-44.121 -437.163)"/>
        <path id="パス_18" data-name="パス 18" d="M98.819,457.732v17.209H94.35V457.732Z" transform="translate(-54.617 -437.163)"/>
        <path id="パス_19" data-name="パス 19" d="M116.668,467.886l5.405,7.055H116.5l-4.212-6.62h-.055v6.62h-4.47V457.732h6.687a7.837,7.837,0,0,1,3.11.569,4.547,4.547,0,0,1,2.1,1.761,5.275,5.275,0,0,1,.781,2.965,5.749,5.749,0,0,1-.434,2.24,4.368,4.368,0,0,1-3.333,2.619Zm-4.435-6.732v4.291h.434a6.621,6.621,0,0,0,1.56-.156,2.432,2.432,0,0,0,1.115-.646,2.291,2.291,0,0,0,0-2.686,2.438,2.438,0,0,0-1.115-.646,6.5,6.5,0,0,0-1.56-.156Z" transform="translate(-59.283 -437.163)"/>
        <path id="パス_20" data-name="パス 20" d="M141.82,456.86a10.207,10.207,0,0,1,3.59.636,9.757,9.757,0,0,1,3.053,1.85,9.084,9.084,0,0,1,2.107,2.831,7.931,7.931,0,0,1,.77,3.533,10.269,10.269,0,0,1-.68,3.789,9.18,9.18,0,0,1-3.433,4.214,8.751,8.751,0,0,1-1.593.813,10.97,10.97,0,0,1-7.6,0A8.58,8.58,0,0,1,135,472.542a8.408,8.408,0,0,1-1.12-1.354,10.038,10.038,0,0,1-.886-1.689,10.226,10.226,0,0,1-.691-3.789,8.445,8.445,0,0,1,.195-1.816,7.994,7.994,0,0,1,.584-1.716,9.077,9.077,0,0,1,2.1-2.831,9.58,9.58,0,0,1,3.088-1.85A9.867,9.867,0,0,1,141.82,456.86Zm0,4.336a4.764,4.764,0,0,0-2.418.635,4.971,4.971,0,0,0-1.784,1.672,4.276,4.276,0,0,0-.657,2.229,5.438,5.438,0,0,0,.657,2.63,4.7,4.7,0,0,0,1.762,1.85,4.826,4.826,0,0,0,2.44.658,4.751,4.751,0,0,0,2.441-.658,4.6,4.6,0,0,0,1.761-1.85,5.315,5.315,0,0,0,.657-2.63,4.162,4.162,0,0,0-.657-2.229,4.974,4.974,0,0,0-1.783-1.672A4.727,4.727,0,0,0,141.82,461.2Z" transform="translate(-67.818 -436.86)"/>
        <path id="パス_21" data-name="パス 21" d="M74.757,492.9v4.6a4,4,0,0,0-1.471-1.214,4.462,4.462,0,0,0-1.892-.41,3.783,3.783,0,0,0-2.035.545,3.581,3.581,0,0,0-1.414,1.471,4.316,4.316,0,0,0-.487,2.073,4.182,4.182,0,0,0,.507,2.073,3.482,3.482,0,0,0,1.414,1.433,4.282,4.282,0,0,0,2.073.506,4.163,4.163,0,0,0,1.815-.41,4.731,4.731,0,0,0,1.491-1.156V507q-1.118.344-1.94.535a6.861,6.861,0,0,1-1.443.153,8.366,8.366,0,0,1-2.962-.564,7.461,7.461,0,0,1-.9-.42,8.958,8.958,0,0,1-1.677-1.185,7.165,7.165,0,0,1-2.369-5.579,7.687,7.687,0,0,1,.573-2.914,7.471,7.471,0,0,1,1.6-2.484,8.347,8.347,0,0,1,1.643-1.289,8.069,8.069,0,0,1,1.93-.822,7.975,7.975,0,0,1,2.035-.277A9.112,9.112,0,0,1,74.757,492.9Z" transform="translate(-43.875 -449.136)"/>
        <path id="パス_22" data-name="パス 22" d="M92.6,492.008a8.731,8.731,0,0,1,3.076.545,8.368,8.368,0,0,1,2.618,1.585,7.8,7.8,0,0,1,1.806,2.427,6.807,6.807,0,0,1,.659,3.029,8.8,8.8,0,0,1-.582,3.248,7.69,7.69,0,0,1-1.72,2.608,7.568,7.568,0,0,1-1.223,1,7.435,7.435,0,0,1-1.366.7,9.4,9.4,0,0,1-6.515,0,7.368,7.368,0,0,1-2.6-1.7,7.181,7.181,0,0,1-.96-1.16,8.624,8.624,0,0,1-.76-1.448,8.769,8.769,0,0,1-.592-3.248,7.26,7.26,0,0,1,.167-1.557,6.861,6.861,0,0,1,.5-1.471,7.793,7.793,0,0,1,1.8-2.427,8.2,8.2,0,0,1,2.647-1.585A8.449,8.449,0,0,1,92.6,492.008Zm0,3.716a4.079,4.079,0,0,0-2.073.545A4.259,4.259,0,0,0,89,497.7a3.665,3.665,0,0,0-.563,1.911A4.662,4.662,0,0,0,89,501.867a4.037,4.037,0,0,0,1.51,1.586,4.143,4.143,0,0,0,2.092.563,4.079,4.079,0,0,0,2.092-.563,3.951,3.951,0,0,0,1.509-1.586,4.556,4.556,0,0,0,.563-2.255A3.568,3.568,0,0,0,96.2,497.7a4.259,4.259,0,0,0-1.529-1.433A4.044,4.044,0,0,0,92.6,495.724Z" transform="translate(-51.172 -449.085)"/>
        <path id="パス_23" data-name="パス 23" d="M113.969,507.505v-14.75H119.4a7.73,7.73,0,0,1,2.9.563,7.189,7.189,0,0,1,2.4,1.567,7.459,7.459,0,0,1,2.049,3.741,7.478,7.478,0,0,1,.148,1.5,7.048,7.048,0,0,1-1.022,3.717,7.314,7.314,0,0,1-2.733,2.684,8.026,8.026,0,0,1-1.815.731,7.588,7.588,0,0,1-1.93.243ZM117.8,496v8.255h.869a5.115,5.115,0,0,0,2.15-.449,3.428,3.428,0,0,0,1.529-1.366,4.474,4.474,0,0,0,.563-2.312,3.992,3.992,0,0,0-1.156-3.038,3.938,3.938,0,0,0-.85-.6,4.243,4.243,0,0,0-1.013-.367,5.327,5.327,0,0,0-1.184-.125Z" transform="translate(-61.441 -449.345)"/>
        <path id="パス_24" data-name="パス 24" d="M146.694,496h-4.566v2.465h4.328v3.248h-4.328v2.542h4.566v3.248h-8.4v-14.75h8.4Z" transform="translate(-69.904 -449.345)"/>
        <path id="パス_25" data-name="パス 25" d="M157.381,508.956a2.22,2.22,0,0,1,1.156.306,2.331,2.331,0,0,1,1.137,1.977,2.141,2.141,0,0,1-.316,1.156,1.966,1.966,0,0,1-.822.822,2.135,2.135,0,0,1-1.156.316,2.1,2.1,0,0,1-1.137-.316,2.005,2.005,0,0,1-.841-.822,2.275,2.275,0,0,1,1.977-3.439Z" transform="translate(-75.748 -454.98)"/>
      </g>
      <rect id="長方形_7" data-name="長方形 7" width="65.217" height="15.652" transform="translate(19.524 64.348)" fill="#0cf"/>
      <path id="パス_26" data-name="パス 26" d="M82.576,533.463a29.148,29.148,0,0,1-5.209,1.638v.982c0,1.023.25,1.326,1.2,1.4.261.021.616.031,1.023.031a21.893,21.893,0,0,0,3.1-.219v1.712c-.939.094-2.035.136-3,.136-.575,0-1.075-.01-1.472-.042-1.65-.1-2.6-1.023-2.6-2.38v-6.243h1.743v3.07a21.7,21.7,0,0,0,4.343-1.555Z" transform="translate(-48.104 -462.466)"/>
      <path id="パス_27" data-name="パス 27" d="M98.77,531.918v7.328H90.888v-7.328ZM97,537.6v-4.072H92.61V537.6Z" transform="translate(-53.413 -462.967)"/>
      <path id="パス_28" data-name="パス 28" d="M115.152,531.95v7.328h-7.464V537.64h5.689v-4.082h-5.689V531.95Z" transform="translate(-59.257 -462.978)"/>
      <path id="パス_29" data-name="パス 29" d="M132.177,535.7v1.754h-8.6V535.7Z" transform="translate(-64.783 -464.281)"/>
      <path id="パス_30" data-name="パス 30" d="M148.14,535.258l-1.128,1.441a20.377,20.377,0,0,0-3.361-2.067v4.52H141.9v-9.186h1.754v2.808A31.586,31.586,0,0,1,148.14,535.258Zm-2.422-4.061a6.908,6.908,0,0,1,.835,1.159l-.751.48a5.6,5.6,0,0,0-.8-1.158Zm1.148-.751a7.305,7.305,0,0,1,.867,1.137l-.742.5a5.588,5.588,0,0,0-.835-1.138Z" transform="translate(-71.155 -462.288)"/>
    </g>
  </g>
</svg>
